<svg width="93" height="100" viewBox="0 0 93 100" fill="none" xmlns="http://www.w3.org/2000/svg">
<path d="M30.3 1.38769C27.4 2.18769 22.8 3.98769 20.1 5.28769C14.4 8.18769 4.4 17.1877 1.7 21.7877C-0.1 24.7877 -0.1 24.8877 1.9 24.8877C3.8 24.8877 3.9 25.5877 4.2 34.0877C4.5 42.1877 4.7 43.3877 6.3 43.2877C7.2 43.1877 10 43.0877 12.5 42.9877L17 42.8877V37.3877C17 34.3877 16.4 30.9877 15.8 29.7877C14.7 28.0877 14.8 27.5877 16.4 26.2877C17.5 25.4877 20.1 24.8877 22.2 24.8877H26V33.8877C26 39.2877 25.6 42.8877 25 42.8877C23.4 42.8877 20 49.0877 20 52.0877C20 53.8877 19.5 54.8877 18.5 54.8877C17.5 54.8877 17 53.7877 17 51.3877V47.8877H12.1C5.5 47.8877 4 49.4877 4.5 55.6877C4.8 58.2877 5.2 63.1877 5.4 66.5877L6 72.7877L3 73.3877C1.3 73.7877 0 74.3877 0 74.8877C0 76.2877 7.6 85.4877 11.7 88.7877C19.5 95.2877 32.4 99.8877 43 99.8877C71.5 99.8877 95.2 74.0877 92.6 45.7877C90.7 24.3877 75.9 6.68769 55.3 1.38769C48.2 -0.512306 37.2 -0.412306 30.3 1.38769ZM60.7 31.0877C64.6 34.7877 63.7 41.2877 58.3 46.9877C56.2 49.2877 56 49.8877 57.1 52.2877C58.1 54.3877 58.1 55.4877 57.2 56.8877C56.1 58.6877 56.5 58.7877 68.9 58.2877C79.9 57.8877 82 57.9877 83.4 59.3877C89.4 65.3877 78.6 74.8877 65.7 74.8877C61.9 74.8877 60.8 74.4877 59.5 72.4877C58.3 70.6877 58.2 69.4877 59 67.4877C59.5 65.9877 60 64.5877 60 64.2877C60 64.0877 56.9 63.8877 53 63.8877C46.2 63.8877 46 63.7877 46 61.4877C46 60.0877 46.4 58.7877 47 58.3877C48.4 57.5877 47.1 55.0877 44.9 54.3877C43.6 53.9877 43 52.7877 43 50.8877C43 46.9877 38.7 42.0877 34.4 41.2877C30.6 40.5877 30.4 39.9877 32.5 35.8877C35.2 30.5877 43.1 27.6877 52.4 28.3877C56.7 28.7877 59 29.4877 60.7 31.0877Z" fill="#E7717D"/>
<circle cx="48" cy="39" r="5" fill="#E7717D"/>
</svg>
